<?xml version="1.0" encoding="UTF-8"?>
<!DOCTYPE svg PUBLIC "-//W3C//DTD SVG 1.1//EN" "http://www.w3.org/Graphics/SVG/1.1/DTD/svg11.dtd">
<svg xmlns="http://www.w3.org/2000/svg" version="1.1" width="204px" height="206px" style="shape-rendering:geometricPrecision; text-rendering:geometricPrecision; image-rendering:optimizeQuality; fill-rule:evenodd; clip-rule:evenodd" xmlns:xlink="http://www.w3.org/1999/xlink">
<g><path style="opacity:1" fill="#28cee6" d="M 98.5,4.5 C 131.5,4.5 164.5,4.5 197.5,4.5C 195.53,49.9468 173.53,81.1135 131.5,98C 126.833,99.3333 122.167,100.667 117.5,102C 144.165,102.5 170.831,102.667 197.5,102.5C 195.677,145.466 175.343,175.966 136.5,194C 124.297,198.874 111.63,201.374 98.5,201.5C 98.6666,174.831 98.5,148.165 98,121.5C 87.6304,164.536 60.7971,190.703 17.5,200C 11.8769,201.029 6.21025,201.529 0.5,201.5C 0.5,168.5 0.5,135.5 0.5,102.5C 33.1667,102.5 65.8333,102.5 98.5,102.5C 98.5,69.8333 98.5,37.1667 98.5,4.5 Z"/></g>
</svg>
